<svg width="24" height="24" viewBox="0 0 24 24" fill="none" xmlns="http://www.w3.org/2000/svg">
<path fill-rule="evenodd" clip-rule="evenodd" d="M10.1211 9.09864V7.72197C10.1211 7.47109 10.1341 7.38743 10.1727 7.25872C10.276 6.90493 10.6248 6.64121 11.038 6.64121C11.4511 6.64121 11.7998 6.91134 11.9031 7.25872C11.9419 7.38743 11.9549 7.47109 11.9549 7.72197V9.84485C11.9549 9.97356 11.9549 10.1021 11.929 10.218C11.858 10.5396 11.5674 10.8292 11.2445 10.8999C11.1284 10.9256 10.9992 10.9256 10.87 10.9256H8.73932C8.48752 10.9256 8.40355 10.9128 8.27437 10.8741C7.92572 10.7712 7.6546 10.4239 7.6546 10.0122C7.6546 9.60039 7.92572 9.25302 8.27437 9.1501C8.40355 9.11148 8.48752 9.09864 8.73932 9.09864H10.1211ZM17.7143 18.7227H6.28575V8.69339C6.28575 8.56468 6.33095 8.45534 6.42137 8.36526L9.38498 5.41239C9.4754 5.32242 9.58513 5.27738 9.71431 5.27738H17.7143V18.7227ZM19.0121 3.01284C18.954 3.00642 18.8765 3 18.728 3H9.41075C9.30757 3 9.20427 3.00642 9.13318 3.01284C8.707 3.05146 8.32602 3.25088 8.02257 3.55321L4.55525 7.00784C4.25191 7.3103 4.05165 7.68976 4.013 8.11439C4.00644 8.1851 4 8.28802 4 8.39093V19.7327C4 19.8806 4.00644 19.9579 4.013 20.0157C4.06453 20.4982 4.5036 20.9356 4.98787 20.9871C5.04608 20.9936 5.12349 21 5.27199 21H18.728C18.8765 21 18.954 20.9936 19.0121 20.9871C19.4964 20.9356 19.9355 20.4982 19.9871 20.0157C19.9934 19.9579 20 19.8806 20 19.7327V4.26734C20 4.11938 19.9934 4.04213 19.9871 3.98425C19.9355 3.50175 19.4964 3.06429 19.0121 3.01284Z" fill="white"/>
</svg>
