<svg width="24" height="24" viewBox="0 0 24 24" fill="none" xmlns="http://www.w3.org/2000/svg">
<path d="M2.88335 20.8675H6.73386C6.93771 20.8675 7.11891 20.7542 7.23216 20.5957L17.8324 3.17781C17.9683 2.95131 17.8097 2.6795 17.5379 2.6795H13.8913C13.7101 2.6795 13.5515 2.7701 13.4609 2.92865L2.70215 20.5504C2.6342 20.6863 2.7248 20.8675 2.88335 20.8675Z" fill="#3EA8FF"/>
<path d="M16.1563 20.5957L21.1619 12.5549C21.3205 12.3057 21.1393 11.9886 20.8448 11.9886H17.2208C17.0849 11.9886 16.949 12.0566 16.8811 12.1698L11.7395 20.3918C11.6036 20.5957 11.7622 20.8675 12.0113 20.8675H15.7033C15.8845 20.8675 16.0657 20.7769 16.1563 20.5957Z" fill="#3EA8FF"/>
</svg>
